<?xml version="1.0" encoding="UTF-8"?>
<svg width="57px" height="24px" viewBox="0 0 57 24" version="1.1" xmlns="http://www.w3.org/2000/svg" xmlns:xlink="http://www.w3.org/1999/xlink">
		<defs>
				<path d="M10.0746587,9.44149049 L7.41758173,9.44149049 L2.25122596,15.4140228 L2.25122596,0 L0,0 L0,21.5705247 L2.25122596,21.5705247 L2.25122596,18.326327 C2.91540385,17.5891711 4.02242788,16.2988289 4.02242788,16.3355133 L8.04485577,21.5705247 L10.8494567,21.5705247 L5.49858173,14.6398175 L10.0746587,9.44149049 Z M55.9555481,19.3953764 C55.6234135,19.6534449 55.1805673,19.9115133 54.627101,19.9115133 C53.7411346,19.9115133 53.3354663,19.3953764 53.3354663,18.2892776 L53.3354663,11.3585703 L56.3613077,11.3585703 L56.3613077,9.44149049 L53.3354663,9.44149049 L53.3354663,4.01520913 L51.0842404,4.01520913 L51.0842404,9.44149049 L49.4974663,9.44149049 L49.4974663,11.3585703 L51.0842404,11.3585703 L51.0842404,18.4001521 C51.0842404,20.7963194 52.3759663,21.8653688 54.368774,21.8653688 C55.4756154,21.8653688 56.3613077,21.4966996 56.9150481,20.9805627 L55.9555481,19.3953764 Z M32.7436683,9.14673764 C35.4005625,9.14673764 37.3933702,10.8424335 37.3933702,14.1236806 L37.3933702,21.5705247 L35.1422356,21.5705247 L35.1422356,14.3446084 C35.1422356,12.2066008 34.1092019,11.1742357 32.1902019,11.1742357 C30.012601,11.1742357 28.5737163,12.5384943 28.5737163,14.8608365 L28.5737163,19.7510875 L26.3224904,16.8317567 L26.3224904,9.44149049 L28.5737163,9.44149049 L28.5737163,11.3956198 C29.3485144,9.92094297 30.8985673,9.14673764 32.7436683,9.14673764 Z M44.1095048,14.2712395 C42.2275913,13.7917871 41.4526106,13.496943 41.4526106,12.4276198 C41.4526106,11.6536882 42.1537837,11.0637262 43.3716106,11.0637262 C44.6261587,11.0637262 45.4011394,11.5799544 45.9916923,12.3541597 L47.5046587,11.1005019 C46.5451587,9.84711787 45.2537981,9.14673764 43.3347981,9.14673764 C40.9359567,9.14673764 39.3491827,10.5109049 39.3491827,12.5013536 C39.3491827,14.6398175 40.7881587,15.561308 43.1870913,16.2250038 C45.2905192,16.8149658 46.139399,17.2572776 46.139399,18.326327 C46.139399,19.3216426 45.2537981,19.948289 43.7037452,19.948289 C42.0798846,19.948289 40.8620577,19.2111331 40.1241635,17.9945247 L38.5003029,19.137308 C39.6075096,20.8333688 41.3787115,21.8653688 43.7037452,21.8653688 C46.5822452,21.8653688 48.316726,20.5014753 48.316726,18.2158175 C48.316726,16.0036198 46.6928654,14.9345703 44.1095048,14.2712395 Z M26.3224904,21.5705247 L26.3224904,19.7495361 L27.7267548,21.5705247 L26.3224904,21.5705247 Z" id="path-1"></path>
				<path d="M20.8198365,15.7464639 C20.8198365,18.0691711 19.3806779,19.396289 17.203351,19.396289 C15.284351,19.396289 14.2509519,18.4010646 14.2509519,16.2259163 L14.2509519,9 L12,9 L12,16.4468441 C12,19.7648669 13.8820048,21.4238783 16.6497019,21.4238783 C18.4948029,21.4238783 20.0079519,20.6499468 20.8198365,19.17527 L20.8198365,21.1290342 L23.0708798,21.1290342 L23.0708798,9 L20.8198365,9 L20.8198365,15.7464639 Z" id="path-3"></path>
		</defs>
		<g stroke="none" stroke-width="1" fill="none" fill-rule="evenodd">
				<mask>
						<use xlink:href="#path-1"></use>
				</mask>
				<use fill="currentColor" xlink:href="#path-1"></use>
				<polygon class="kunst-logo-slash" fill="#FF6600" points="31.1812837 23.8805779 19 8.08657034 20.4122115 7 32.5933125 22.7937338"></polygon>
				<mask>
						<use xlink:href="#path-3"></use>
				</mask>
				<use fill="currentColor" xlink:href="#path-3"></use>
		</g>
</svg>
