<?xml version="1.0" standalone="no"?>
<!DOCTYPE svg PUBLIC "-//W3C//DTD SVG 20010904//EN"
 "http://www.w3.org/TR/2001/REC-SVG-20010904/DTD/svg10.dtd">
<svg version="1.0" xmlns="http://www.w3.org/2000/svg"
 width="16.000000pt" height="16.000000pt" viewBox="0 0 16.000000 16.000000"
 preserveAspectRatio="xMidYMid meet">
<g transform="translate(0.000000,16.000000) scale(0.002286,-0.002286)"
fill="#000000" stroke="none">
<path d="M872 3938 l3 -2193 213 -3 212 -2 0 307 0 308 159 180 c88 99 163
181 168 182 4 1 177 -218 383 -487 l375 -490 263 0 c144 0 262 3 262 8 0 4
-223 296 -495 649 -272 353 -495 646 -495 652 0 7 633 736 833 959 l20 22
-254 0 -254 0 -480 -555 -480 -556 -3 1606 -2 1605 -215 0 -215 0 2 -2192z"/>
<path d="M3520 4179 c-85 -66 -155 -124 -155 -129 0 -10 1992 -2597 2006
-2606 8 -5 322 231 326 245 3 8 -2000 2604 -2012 2608 -6 1 -80 -52 -165 -118z"/>
</g>
</svg>
